<svg width="178" height="23" viewBox="0 0 178 23" fill="none" xmlns="http://www.w3.org/2000/svg">
<path d="M6.29688 1.42188C6.77083 1.42188 7.17708 1.58268 7.51562 1.9043C7.85417 2.20898 8.0319 2.59831 8.04883 3.07227V5.28125H16.6816C17.1556 5.28125 17.5618 5.44206 17.9004 5.76367C18.222 6.10221 18.3828 6.50846 18.3828 6.98242C18.3828 7.45638 18.2135 7.86263 17.875 8.20117C17.5534 8.52279 17.1556 8.68359 16.6816 8.68359H8.04883V9.19141C8.0319 9.88542 8.07422 10.5286 8.17578 11.1211C8.29427 11.6966 8.5651 12.2129 8.98828 12.6699C9.41146 13.127 9.94466 13.3724 10.5879 13.4062H16.7832C17.2572 13.4232 17.6465 13.6009 17.9512 13.9395C18.2728 14.278 18.4336 14.6842 18.4336 15.1582C18.4167 15.6152 18.2474 16.0046 17.9258 16.3262C17.6211 16.6309 17.2402 16.7917 16.7832 16.8086H9.72461C8.53971 16.7409 7.55794 16.3431 6.7793 15.6152C6.01758 14.8704 5.46745 13.9648 5.12891 12.8984C4.80729 11.832 4.63802 10.6979 4.62109 9.49609V8.68359H1.70117C1.22721 8.68359 0.829427 8.51432 0.507812 8.17578C0.169271 7.85417 0 7.45638 0 6.98242C0 6.50846 0.160807 6.11068 0.482422 5.78906C0.820964 5.45052 1.22721 5.28125 1.70117 5.28125H4.62109V3.07227C4.63802 2.61523 4.80729 2.23438 5.12891 1.92969C5.45052 1.60807 5.83984 1.4388 6.29688 1.42188ZM26.127 16.8086C24.6374 16.7578 23.5117 16.4108 22.75 15.7676C21.9883 15.1074 21.4382 14.3711 21.0996 13.5586C20.7611 12.7292 20.5918 11.8913 20.5918 11.0449C20.5918 10.1647 20.7526 9.31836 21.0742 8.50586C21.4128 7.67643 21.9629 6.9401 22.7246 6.29688C23.5033 5.63672 24.485 5.29818 25.6699 5.28125H33.8965C35.0814 5.29818 36.0547 5.63672 36.8164 6.29688C37.5951 6.9401 38.1452 7.67643 38.4668 8.50586C38.8053 9.31836 38.9746 10.1647 38.9746 11.0449C38.9746 11.8913 38.8053 12.7292 38.4668 13.5586C38.1283 14.3711 37.5781 15.1074 36.8164 15.7676C36.0547 16.4108 34.929 16.7578 33.4395 16.8086H26.127ZM25.5684 8.68359C25.2467 8.68359 24.9674 8.81901 24.7305 9.08984C24.4935 9.34375 24.3158 9.64844 24.1973 10.0039C24.0957 10.3424 24.0449 10.681 24.0449 11.0195C24.0449 11.375 24.0957 11.7305 24.1973 12.0859C24.3158 12.4245 24.4935 12.7292 24.7305 13C24.9674 13.2539 25.2467 13.3893 25.5684 13.4062H33.998C34.3197 13.3893 34.599 13.2539 34.8359 13C35.0729 12.7292 35.2422 12.4245 35.3438 12.0859C35.4622 11.7305 35.5215 11.375 35.5215 11.0195C35.5215 10.681 35.4622 10.3424 35.3438 10.0039C35.2422 9.64844 35.0729 9.34375 34.8359 9.08984C34.599 8.81901 34.3197 8.68359 33.998 8.68359H25.5684ZM49.9941 17.2402C49.1139 17.2402 48.2422 17.1387 47.3789 16.9355C46.5326 16.7324 45.7201 16.4362 44.9414 16.0469C44.1628 15.6406 43.4772 15.1074 42.8848 14.4473C42.2923 13.7871 41.9707 13 41.9199 12.0859V11.0195V6.67773C41.9199 6.20378 42.0892 5.81445 42.4277 5.50977C42.7832 5.18815 43.1979 5.02734 43.6719 5.02734C44.6875 5.11198 45.2376 5.66211 45.3223 6.67773V7.79492V11.2988C45.3561 11.8236 45.5508 12.2637 45.9062 12.6191C46.2786 12.9577 46.6849 13.2285 47.125 13.4316C47.582 13.6348 48.0475 13.7871 48.5215 13.8887C49.0124 13.9902 49.5033 14.041 49.9941 14.041C50.485 14.041 50.9674 13.9902 51.4414 13.8887C51.9323 13.7871 52.3978 13.6348 52.8379 13.4316C53.2949 13.2285 53.7012 12.9577 54.0566 12.6191C54.429 12.2637 54.6322 11.8236 54.666 11.2988V7.79492V6.67773C54.666 6.20378 54.8353 5.81445 55.1738 5.50977C55.5293 5.18815 55.944 5.02734 56.418 5.02734C57.4336 5.11198 57.9922 5.66211 58.0938 6.67773V11.0195V12.0859C58.043 13 57.7129 13.7871 57.1035 14.4473C56.5111 15.1074 55.8255 15.6406 55.0469 16.0469C54.2682 16.4362 53.4473 16.7324 52.584 16.9355C51.7376 17.1387 50.8743 17.2402 49.9941 17.2402ZM61.877 8.48047C62.1986 7.66797 62.7402 6.9401 63.502 6.29688C64.2806 5.63672 65.2624 5.29818 66.4473 5.28125H75.9941C76.4681 5.28125 76.8659 5.45052 77.1875 5.78906C77.526 6.11068 77.6953 6.50846 77.6953 6.98242C77.6953 7.45638 77.526 7.86263 77.1875 8.20117C76.8659 8.52279 76.4681 8.68359 75.9941 8.68359H66.3457C66.0241 8.68359 65.7448 8.81901 65.5078 9.08984C65.2708 9.34375 65.0846 9.64844 64.9492 10.0039C64.8307 10.3594 64.7715 10.6979 64.7715 11.0195V15.4629C64.6699 16.4785 64.1113 17.0286 63.0957 17.1133C62.6217 17.1133 62.207 16.9609 61.8516 16.6562C61.513 16.3346 61.3438 15.9368 61.3438 15.4629V11.0449H61.3691C61.3691 10.1647 61.5384 9.3099 61.877 8.48047ZM107.453 9.34375C107.453 8.92057 107.233 8.70052 106.793 8.68359H97.9062C97.5846 8.70052 97.3053 8.8444 97.0684 9.11523C96.8314 9.36914 96.6536 9.67383 96.5352 10.0293C96.4336 10.3678 96.3828 10.7148 96.3828 11.0703C96.3828 11.4089 96.4336 11.7559 96.5352 12.1113C96.6536 12.4499 96.8314 12.7546 97.0684 13.0254C97.3053 13.2793 97.5846 13.4062 97.9062 13.4062H104.406C104.88 13.4062 105.278 13.5755 105.6 13.9141C105.938 14.2357 106.107 14.6335 106.107 15.1074C106.107 15.5814 105.938 15.9792 105.6 16.3008C105.278 16.6393 104.88 16.8086 104.406 16.8086H98.0078C96.8229 16.7917 95.8411 16.4616 95.0625 15.8184C94.3008 15.1582 93.7507 14.4219 93.4121 13.6094C93.0905 12.7799 92.9297 11.9251 92.9297 11.0449C92.9297 10.1986 93.099 9.36914 93.4375 8.55664C93.776 7.72721 94.3262 6.99089 95.0879 6.34766C95.8496 5.6875 96.9753 5.33203 98.4648 5.28125H109.129C109.603 5.28125 110.009 5.44206 110.348 5.76367C110.686 6.06836 110.864 6.45768 110.881 6.93164V14.9551C110.881 16.3092 110.695 17.5872 110.322 18.7891C109.984 19.8555 109.425 20.7526 108.646 21.4805C107.885 22.2253 106.911 22.6315 105.727 22.6992H96.9414C96.4844 22.6823 96.0951 22.513 95.7734 22.1914C95.4688 21.8867 95.3079 21.5059 95.291 21.0488C95.291 20.5749 95.4434 20.1686 95.748 19.8301C96.0697 19.4915 96.4674 19.3138 96.9414 19.2969H104.863C105.507 19.263 106.04 19.0176 106.463 18.5605C106.886 18.1035 107.157 17.5703 107.275 16.9609C107.394 16.3516 107.453 15.5645 107.453 14.5996V9.34375ZM122.408 17.2402C121.528 17.2402 120.656 17.1387 119.793 16.9355C118.947 16.7324 118.134 16.4362 117.355 16.0469C116.577 15.6406 115.891 15.1074 115.299 14.4473C114.706 13.7871 114.385 13 114.334 12.0859V11.0195V6.67773C114.334 6.20378 114.503 5.81445 114.842 5.50977C115.197 5.18815 115.612 5.02734 116.086 5.02734C117.102 5.11198 117.652 5.66211 117.736 6.67773V7.79492V11.2988C117.77 11.8236 117.965 12.2637 118.32 12.6191C118.693 12.9577 119.099 13.2285 119.539 13.4316C119.996 13.6348 120.462 13.7871 120.936 13.8887C121.426 13.9902 121.917 14.041 122.408 14.041C122.899 14.041 123.382 13.9902 123.855 13.8887C124.346 13.7871 124.812 13.6348 125.252 13.4316C125.709 13.2285 126.115 12.9577 126.471 12.6191C126.843 12.2637 127.046 11.8236 127.08 11.2988V7.79492V6.67773C127.08 6.20378 127.249 5.81445 127.588 5.50977C127.943 5.18815 128.358 5.02734 128.832 5.02734C129.848 5.11198 130.406 5.66211 130.508 6.67773V11.0195V12.0859C130.457 13 130.127 13.7871 129.518 14.4473C128.925 15.1074 128.24 15.6406 127.461 16.0469C126.682 16.4362 125.861 16.7324 124.998 16.9355C124.152 17.1387 123.288 17.2402 122.408 17.2402ZM135.51 5.02734C135.967 5.04427 136.356 5.21354 136.678 5.53516C136.999 5.83984 137.169 6.2207 137.186 6.67773V15.4629C137.084 16.4785 136.525 17.0286 135.51 17.1133C135.036 17.1133 134.621 16.9609 134.266 16.6562C133.927 16.3346 133.758 15.9368 133.758 15.4629V6.67773C133.775 6.20378 133.952 5.81445 134.291 5.50977C134.63 5.18815 135.036 5.02734 135.51 5.02734ZM133.377 1.72656C133.377 1.2526 133.58 0.846354 133.986 0.507812C134.393 0.169271 134.883 0 135.459 0C136.035 0 136.525 0.169271 136.932 0.507812C137.338 0.846354 137.541 1.2526 137.541 1.72656C137.541 2.21745 137.338 2.63216 136.932 2.9707C136.525 3.30924 136.035 3.47852 135.459 3.47852C134.883 3.47852 134.393 3.30924 133.986 2.9707C133.58 2.63216 133.377 2.21745 133.377 1.72656ZM154.426 3.07227C154.527 2.05664 155.086 1.50651 156.102 1.42188C156.576 1.42188 156.982 1.58268 157.32 1.9043C157.676 2.20898 157.854 2.59831 157.854 3.07227V15.1582C157.837 15.6322 157.659 16.0299 157.32 16.3516C156.982 16.6562 156.576 16.8086 156.102 16.8086H145.438C143.948 16.7578 142.822 16.4108 142.061 15.7676C141.299 15.1074 140.749 14.3711 140.41 13.5586C140.072 12.7292 139.902 11.8913 139.902 11.0449C139.902 10.1647 140.063 9.31836 140.385 8.50586C140.723 7.67643 141.273 6.9401 142.035 6.29688C142.814 5.63672 143.796 5.29818 144.98 5.28125H151.379C151.853 5.28125 152.251 5.45052 152.572 5.78906C152.911 6.11068 153.08 6.50846 153.08 6.98242C153.08 7.45638 152.911 7.86263 152.572 8.20117C152.251 8.52279 151.853 8.68359 151.379 8.68359H144.879C144.557 8.68359 144.278 8.81901 144.041 9.08984C143.804 9.34375 143.626 9.64844 143.508 10.0039C143.406 10.3424 143.355 10.681 143.355 11.0195C143.355 11.375 143.406 11.7305 143.508 12.0859C143.626 12.4245 143.804 12.7292 144.041 13C144.278 13.2539 144.557 13.3893 144.879 13.4062H153.766C154.206 13.3893 154.426 13.1693 154.426 12.7461V3.07227ZM166.41 16.8086C164.921 16.7578 163.795 16.4108 163.033 15.7676C162.271 15.1074 161.721 14.3711 161.383 13.5586C161.044 12.7292 160.875 11.8913 160.875 11.0449C160.875 10.1647 161.036 9.31836 161.357 8.50586C161.696 7.67643 162.246 6.9401 163.008 6.29688C163.786 5.63672 164.768 5.29818 165.953 5.28125H175.602C176.076 5.28125 176.473 5.44206 176.795 5.76367C177.133 6.06836 177.303 6.44076 177.303 6.88086C177.303 7.33789 177.133 7.72721 176.795 8.04883C176.473 8.35352 176.076 8.50586 175.602 8.50586H166.105C165.733 8.50586 165.403 8.63281 165.115 8.88672C164.844 9.14062 164.641 9.4707 164.506 9.87695C164.387 10.2832 164.328 10.681 164.328 11.0703C164.328 11.4935 164.387 11.9082 164.506 12.3145C164.641 12.7207 164.844 13.0508 165.115 13.3047C165.403 13.5417 165.733 13.6686 166.105 13.6855H175.602C176.076 13.6855 176.473 13.8379 176.795 14.1426C177.133 14.4473 177.303 14.8112 177.303 15.2344C177.303 15.6745 177.133 16.0469 176.795 16.3516C176.473 16.6562 176.076 16.8086 175.602 16.8086H166.41ZM176.998 10.9941C176.998 11.3158 176.854 11.5951 176.566 11.832C176.312 12.0521 175.991 12.1621 175.602 12.1621H167.299C166.91 12.1621 166.579 12.0521 166.309 11.832C166.038 11.5951 165.902 11.3158 165.902 10.9941C165.902 10.6895 166.038 10.4186 166.309 10.1816C166.579 9.96159 166.91 9.85156 167.299 9.85156H175.602C175.991 9.85156 176.321 9.97005 176.592 10.207C176.863 10.4271 176.998 10.6895 176.998 10.9941Z" fill="#495560"/>
</svg>
